<svg id="Zeta" xmlns="http://www.w3.org/2000/svg" width="52.098" height="27.42" viewBox="0 0 52.098 27.42">
  <g id="Group_12613" data-name="Group 12613">
    <path id="Rectangle_3622" data-name="Rectangle 3622" d="M10,0H52.1a0,0,0,0,1,0,0V17.42a10,10,0,0,1-10,10H0a0,0,0,0,1,0,0V10A10,10,0,0,1,10,0Z" transform="translate(0)" fill="#fcd334"/>
    <g id="Group_12612" data-name="Group 12612" transform="translate(8.021 4.141)">
      <g id="Group_12601" data-name="Group 12601" transform="translate(0)">
        <g id="Group_12597" data-name="Group 12597" transform="translate(9.856 2.887)">
          <path id="Path_7444" data-name="Path 7444" d="M372.861,221.339A5.618,5.618,0,0,0,370,221.1a5.191,5.191,0,0,0-2.533,1.012,5.581,5.581,0,0,0-1.4,6.974,5.891,5.891,0,0,0,5.884,2.821,6.532,6.532,0,0,0,3.042-1.241.227.227,0,0,0,.089-.31,1.226,1.226,0,0,0-1.814-.78,4.812,4.812,0,0,1-2.581.461,3.183,3.183,0,0,1-1.62-.482,5.963,5.963,0,0,1-.556-.5l.328-.113q3.325-1.087,6.654-2.168c.142-.048.227-.105.22-.264a14.094,14.094,0,0,0-.078-1.725A4.231,4.231,0,0,0,372.861,221.339Zm.309,4.033c-1.761.6-3.527,1.182-5.293,1.768-.014,0-.031,0-.067-.006-.47-2,.667-4.292,3.177-4.146a2.184,2.184,0,0,1,2.329,2.159A.28.28,0,0,1,373.17,225.372Z" transform="translate(-365.409 -221.018)" fill="#512d7a" fill-rule="evenodd"/>
        </g>
        <g id="Group_12598" data-name="Group 12598" transform="translate(0 2.883)">
          <path id="Path_7445" data-name="Path 7445" d="M230.7,222.963a1.57,1.57,0,0,0,.541-1.493c0-.45-.062-.512-.524-.512q-4.33,0-8.661,0c-.086,0-.171.01-.252.013a1.772,1.772,0,0,0,1.8,2.066q1.843,0,3.688,0h.311c-.1.129-.16.2-.22.278-1.769,2.094-3.521,4.2-5.318,6.271a2.127,2.127,0,0,0-.622,1.735c.049.442.122.559.565.559h9.221c-.017-.353-.012-.667-.058-.976a1.174,1.174,0,0,0-1.146-1.113,7.518,7.518,0,0,0-.771.01q-1.953,0-3.907,0c-.076,0-.151-.007-.259-.014.045-.063.065-.1.088-.124Q227.935,226.313,230.7,222.963Z" transform="translate(-221.425 -220.957)" fill="#512d7a" fill-rule="evenodd"/>
        </g>
        <g id="Group_12599" data-name="Group 12599" transform="translate(27.348 2.865)">
          <path id="Path_7446" data-name="Path 7446" d="M629.631,225.218a9.559,9.559,0,0,0-.1-1.416,3.275,3.275,0,0,0-2.5-2.89,6.3,6.3,0,0,0-4.337.423c-.376.169-.722.406-1.146.647a8.7,8.7,0,0,0,.724.8,1.06,1.06,0,0,0,1.232.164,4.358,4.358,0,0,1,2.021-.427,1.865,1.865,0,0,1,1.982,1.834c.045.478.039.485-.427.455-.079,0-.158-.019-.237-.024a9.063,9.063,0,0,0-3.626.364,3.032,3.032,0,0,0-2.1,1.955,5.072,5.072,0,0,0-.187,1.374,2.74,2.74,0,0,0,.881,2.148,3.785,3.785,0,0,0,5.659-.561c.047-.073.1-.14.157-.211a3.182,3.182,0,0,1,.052.662.878.878,0,0,0,.391.746,2.859,2.859,0,0,0,1.565.4v-.281C629.635,229.43,629.641,227.169,629.631,225.218Zm-2.587,2.524a3.218,3.218,0,0,1-1.46,1.936,2.2,2.2,0,0,1-2.366-.14,1.5,1.5,0,0,1-.016-2.359,3.221,3.221,0,0,1,1.782-.622q1.013-.1,2.026-.19c.047,0,.094,0,.171,0A3.331,3.331,0,0,1,627.044,227.742Z" transform="translate(-620.929 -220.7)" fill="#512d7a" fill-rule="evenodd"/>
        </g>
        <g id="Group_12600" data-name="Group 12600" transform="translate(21.561)">
          <path id="Path_7447" data-name="Path 7447" d="M540.21,190.688a2.2,2.2,0,0,1-.243-.008,1.039,1.039,0,0,1-1.154-.862,6.815,6.815,0,0,1-.237-1.5c-.04-.846-.011-1.7-.011-2.546v-2.12c.6-.031,1.172.088,1.6-.379a2.086,2.086,0,0,0,.481-1.549h-.284c-.493,0-.987-.01-1.479,0-.218.006-.295-.052-.29-.282.013-.84,0-1.466,0-2.307,0-.093-.01-.189-.015-.3a2.59,2.59,0,0,0-1.662.472,1.14,1.14,0,0,0-.512,1.006c0,2.716-.009,5.433-.019,8.148a5.746,5.746,0,0,0,.259,1.91,3.008,3.008,0,0,0,2.385,2.2,12.247,12.247,0,0,0,1.86.068c.67.01.676,0,.627-.674C541.471,191.26,541.105,190.622,540.21,190.688Z" transform="translate(-536.391 -178.841)" fill="#512d7a" fill-rule="evenodd"/>
        </g>
      </g>
      <g id="Group_12609" data-name="Group 12609" transform="translate(4.064 16.156)">
        <g id="Group_12602" data-name="Group 12602" transform="translate(0 0.053)">
          <path id="Path_7448" data-name="Path 7448" d="M280.786,415.632h.907c.637,0,1.111.22,1.111.888,0,.637-.474.931-1.094.931H281.3v1.055h-.511Zm.884,1.411c.427,0,.633-.171.633-.523s-.224-.48-.65-.48H281.3v1Z" transform="translate(-280.786 -415.632)" fill="#512d7a"/>
        </g>
        <g id="Group_12603" data-name="Group 12603" transform="translate(4.044)">
          <path id="Path_7449" data-name="Path 7449" d="M339.86,416.337c0-.927.518-1.477,1.266-1.477s1.271.55,1.271,1.477-.518,1.5-1.271,1.5S339.86,417.27,339.86,416.337Zm2.01,0c0-.641-.291-1.033-.744-1.033s-.743.391-.743,1.033.29,1.06.743,1.06S341.87,416.984,341.87,416.337Z" transform="translate(-339.86 -414.86)" fill="#512d7a"/>
        </g>
        <g id="Group_12604" data-name="Group 12604" transform="translate(8.606 0.053)">
          <path id="Path_7450" data-name="Path 7450" d="M406.508,415.632h.524l.25,1.451c.049.307.1.616.141.918h.017c.061-.3.123-.616.189-.918l.353-1.451h.443l.353,1.451c.066.3.127.611.193.918h.017c.044-.307.093-.616.137-.918l.25-1.451h.488l-.55,2.875h-.633l-.356-1.513c-.049-.224-.093-.444-.129-.664h-.017c-.04.22-.083.44-.131.664l-.347,1.513h-.62Z" transform="translate(-406.508 -415.632)" fill="#512d7a"/>
        </g>
        <g id="Group_12605" data-name="Group 12605" transform="translate(13.987 0.053)">
          <path id="Path_7451" data-name="Path 7451" d="M485.112,415.632h1.733v.431h-1.221v.734h1.033v.43h-1.033v.848h1.266v.431h-1.777Z" transform="translate(-485.112 -415.632)" fill="#512d7a"/>
        </g>
        <g id="Group_12606" data-name="Group 12606" transform="translate(17.789 0.053)">
          <path id="Path_7452" data-name="Path 7452" d="M540.66,415.632h.973c.6,0,1.054.211,1.054.853a.805.805,0,0,1-.571.823l.687,1.2h-.573l-.62-1.126h-.439v1.126h-.511Zm.92,1.345c.391,0,.607-.167.607-.493s-.216-.444-.607-.444h-.409v.937Z" transform="translate(-540.66 -415.632)" fill="#512d7a"/>
        </g>
        <g id="Group_12607" data-name="Group 12607" transform="translate(21.957 0.053)">
          <path id="Path_7453" data-name="Path 7453" d="M601.549,415.632h1.733v.431H602.06v.734h1.033v.43H602.06v.848h1.266v.431h-1.777Z" transform="translate(-601.549 -415.632)" fill="#512d7a"/>
        </g>
        <g id="Group_12608" data-name="Group 12608" transform="translate(25.76 0.053)">
          <path id="Path_7454" data-name="Path 7454" d="M657.1,415.632h.77a1.439,1.439,0,0,1,.027,2.875h-.8Zm.736,2.462c.58,0,.91-.33.91-1.038s-.33-1.011-.91-1.011h-.224v2.05Z" transform="translate(-657.096 -415.632)" fill="#512d7a"/>
        </g>
      </g>
      <g id="Group_12610" data-name="Group 12610" transform="translate(0 17.532)">
        <rect id="Rectangle_3623" data-name="Rectangle 3623" width="2.513" height="0.229" fill="#512d7a"/>
      </g>
      <g id="Group_12611" data-name="Group 12611" transform="translate(33.543 17.532)">
        <rect id="Rectangle_3624" data-name="Rectangle 3624" width="2.513" height="0.229" fill="#512d7a"/>
      </g>
    </g>
  </g>
</svg>
